<svg class="icon" viewBox="0 0 1024 1024" version="1.1" xmlns="http://www.w3.org/2000/svg" p-id="1227" width="200" height="200"><path d="M896 85.333333a42.666667 42.666667 0 0 1 42.666667 42.666667v640a42.666667 42.666667 0 0 1-42.666667 42.666667h-85.333333v-85.333334h42.666666V170.666667H298.666667v42.666666H213.333333V128a42.666667 42.666667 0 0 1 42.666667-42.666667h640z" p-id="1228"></path><path d="M768 213.333333a42.666667 42.666667 0 0 1 42.666667 42.666667v640a42.666667 42.666667 0 0 1-42.666667 42.666667H128a42.666667 42.666667 0 0 1-42.666667-42.666667V256a42.666667 42.666667 0 0 1 42.666667-42.666667h640z m-42.666667 85.333334H170.666667v554.666666h554.666666V298.666667z" p-id="1229"></path><path d="M384 405.888v67.626667a64 64 0 0 0 127.701333 6.144l0.298667-6.144V405.888h85.333333v67.626667a149.333333 149.333333 0 0 1-298.453333 8.192L298.666667 473.514667V405.888h85.333333z"></path></svg>
