<?xml version="1.0" standalone="no"?><!DOCTYPE svg PUBLIC "-//W3C//DTD SVG 1.1//EN" "http://www.w3.org/Graphics/SVG/1.1/DTD/svg11.dtd"><svg t="1619139994968" class="icon" viewBox="0 0 1024 1024" version="1.1" xmlns="http://www.w3.org/2000/svg" p-id="2745" xmlns:xlink="http://www.w3.org/1999/xlink" width="200" height="200"><defs><style type="text/css"></style></defs><path d="M194.1 317.6H97.5c-17.7 0-33.5 11.5-33.5 30.8v589h157.6c0.1 0.1 0.1-589 0.1-589 0-21.2-9.8-30.8-27.6-30.8zM438.3 86.5h-96.6c-17.7 0-41.4 19.3-41.4 40.5v810.4h177.4V127c-0.1-21.2-21.7-40.5-39.4-40.5z m498 231.1h-96.6c-17.7 0-37.5 11.5-37.5 30.8v589h157.6v-589h0.1c0.1-21.2-5.8-30.8-23.6-30.8z m-254 173.3h-96.6c-17.7 0-29.5 25-29.5 46.3v400.3h157.6V537.2c0.1-21.2-13.7-46.3-31.5-46.3z" p-id="2746"></path></svg>